@startuml
title 2019/09/29 14:27:36
UriParser <|-- HttpStyleUriParser
UriParser o-- UriSyntaxFlags
UriParser o-- UriSyntaxFlags
UriParser o-- String
UriParser o-- UriParser
UriParser o-- UriParser
UriParser o-- UriParser
UriParser o-- UriParser
UriParser o-- UriParser
UriParser o-- UriParser
UriParser o-- UriParser
UriParser o-- UriParser
UriParser o-- UriParser
UriParser o-- UriParser
UriParser o-- UriParser
UriParser o-- UriParser
UriParser o-- UriParser
UriParser o-- UriParser
UriParser o-- UriParser
UriParser o-- UriParser
UriParser o-- UriParser
UriParser o-- UriSyntaxFlags
UriParser o-- UriSyntaxFlags
class HttpStyleUriParser
{
}

abstract class UriParser
{
-_updatableFlagsUsed:Boolean
-_port:Int32
+{static}Register():UriParser
+{static}IsKnownScheme():UriParser
#OnNewUri():UriParser
#OnRegister():UriParser
#InitializeAndValidate():UriParser
#Resolve():UriParser
#IsBaseOf():UriParser
#GetComponents():UriParser
#IsWellFormedOriginalString():UriParser
}

@enduml
